<svg width="44" height="45" viewBox="0 0 44 45" fill="none" xmlns="http://www.w3.org/2000/svg">
<rect y="0.5" width="44" height="44" rx="22" fill="#4259E0"/>
<path d="M14.5329 31.4606C13.9853 31.4606 13.5166 31.2656 13.1266 30.8757C12.7367 30.4857 12.5417 30.017 12.5417 29.4694V15.5308C12.5417 14.9832 12.7367 14.5144 13.1266 14.1245C13.5166 13.7345 13.9853 13.5396 14.5329 13.5396H28.4715C29.0191 13.5396 29.4879 13.7345 29.8778 14.1245C30.2678 14.5144 30.4627 14.9832 30.4627 15.5308V18.0198H28.4715V15.5308H14.5329V29.4694H28.4715V26.9803H30.4627V29.4694C30.4627 30.017 30.2678 30.4857 29.8778 30.8757C29.4879 31.2656 29.0191 31.4606 28.4715 31.4606H14.5329ZM22.4978 27.4781C21.9502 27.4781 21.4815 27.2832 21.0915 26.8932C20.7016 26.5033 20.5066 26.0345 20.5066 25.4869V19.5132C20.5066 18.9656 20.7016 18.4969 21.0915 18.1069C21.4815 17.717 21.9502 17.522 22.4978 17.522H29.4671C30.0147 17.522 30.4835 17.717 30.8734 18.1069C31.2634 18.4969 31.4584 18.9656 31.4584 19.5132V25.4869C31.4584 26.0345 31.2634 26.5033 30.8734 26.8932C30.4835 27.2832 30.0147 27.4781 29.4671 27.4781H22.4978ZM29.4671 25.4869V19.5132H22.4978V25.4869H29.4671ZM25.4847 23.9935C25.8995 23.9935 26.2521 23.8483 26.5425 23.5579C26.8329 23.2675 26.9781 22.9149 26.9781 22.5001C26.9781 22.0852 26.8329 21.7326 26.5425 21.4422C26.2521 21.1518 25.8995 21.0067 25.4847 21.0067C25.0698 21.0067 24.7172 21.1518 24.4268 21.4422C24.1364 21.7326 23.9912 22.0852 23.9912 22.5001C23.9912 22.9149 24.1364 23.2675 24.4268 23.5579C24.7172 23.8483 25.0698 23.9935 25.4847 23.9935Z" fill="white"/>
</svg>
